<svg width="24" height="24" viewBox="0 0 24 24" fill="none" xmlns="http://www.w3.org/2000/svg">
<g clip-path="url(#clip0_34_1401)">
<path d="M15.6444 5.03455C12.1556 5.03455 9.28857 7.86213 9.28857 11.3794V21.3104C9.28857 21.6897 9.59946 22.0001 9.97942 22.0001H13.5718C13.9518 22.0001 14.2627 21.6897 14.2627 21.3104V11.6552C14.2627 10.8966 14.8844 10.2759 15.6444 10.2759C16.4043 10.2759 17.0261 10.8966 17.0261 11.6552V21.3104C17.0261 21.6897 17.3369 22.0001 17.7169 22.0001H21.3093C21.6893 22.0001 22.0001 21.6897 22.0001 21.3104V11.3794C22.0001 7.89662 19.1677 5.03455 15.6444 5.03455Z" fill="#505F79"/>
<path d="M6.28325 8.27588H2.69085C2.31088 8.27588 2 8.58622 2 8.96553V21.3104C2 21.6897 2.31088 22 2.69085 22H6.28325C6.66321 22 6.97409 21.6897 6.97409 21.3104V8.96553C6.97409 8.58622 6.66321 8.27588 6.28325 8.27588Z" fill="#505F79"/>
<path d="M4.48705 2C3.10535 2 2 3.10345 2 4.48276C2 5.86207 3.10535 6.96552 4.48705 6.96552C5.86874 6.96552 6.97409 5.86207 6.97409 4.48276C6.97409 3.10345 5.86874 2 4.48705 2Z" fill="#505F79"/>
</g>
<defs>
<clipPath id="clip0_34_1401">
<rect width="20" height="20" fill="white" transform="translate(2 2)"/>
</clipPath>
</defs>
</svg>
