<svg width="24" height="24" viewBox="0 0 24 24" fill="none" xmlns="http://www.w3.org/2000/svg">
<g clip-path="url(#clip0_34_1415)">
<g clip-path="url(#clip1_34_1415)">
<path d="M21.7665 2.36964C21.4331 1.97097 20.8665 1.87131 20.4331 2.17031L18.4998 3.49921C17.5998 2.53576 16.3331 2.0042 14.9665 2.0042C12.2665 2.0042 10.0331 4.19688 10.0331 6.92113C10.0331 7.3198 10.0665 7.68524 10.1665 8.05069C7.83313 7.55235 6.43313 5.85801 5.8998 2.80154C5.83313 2.40287 5.53313 2.10386 5.13313 2.0042C4.76646 1.90453 4.36646 2.07064 4.13313 2.36964C4.06646 2.43609 -1.43354 10.0773 6.53313 16.5557C5.76646 18.1836 3.46646 19.5789 2.56646 20.044C2.13313 20.2434 1.93313 20.7085 2.03313 21.1736C2.13313 21.6387 2.53313 21.9377 2.9998 21.9377H4.73313C14.8665 21.9377 19.4665 16.9211 19.5665 5.69189L21.6665 3.69854C22.0665 3.36632 22.0998 2.76831 21.7665 2.36964Z" fill="#505F79"/>
</g>
</g>
<defs>
<clipPath id="clip0_34_1415">
<rect width="20" height="20" fill="white" transform="translate(2 2)"/>
</clipPath>
<clipPath id="clip1_34_1415">
<rect width="20" height="19.9667" fill="white" transform="translate(2 1.97131)"/>
</clipPath>
</defs>
</svg>
